<svg width="52" height="16" viewBox="0 0 52 16" fill="none" xmlns="http://www.w3.org/2000/svg">
<path d="M3.184 4.428V6.78H7.856V8.908H3.184V11.372H7.856V13.5H1.04V2.3H7.856V4.428H3.184ZM19.1286 2.3V13.5H16.9846L12.8246 6.284V13.5H10.6806V2.3H12.8246L16.9846 9.516V2.3H19.1286ZM26.0999 9.228V7.1H30.3239V9.516C30.3239 11.996 28.7879 13.66 26.0999 13.66C23.4119 13.66 21.8759 11.996 21.8759 9.516V6.284C21.8759 3.804 23.4119 2.14 26.0999 2.14C28.6279 2.14 30.1319 3.612 30.3079 5.836H28.1479C27.9559 4.828 27.1239 4.268 26.0999 4.268C24.9319 4.268 24.0199 4.988 24.0199 6.284V9.516C24.0199 10.812 24.9319 11.532 26.0999 11.532C27.2679 11.532 28.1799 10.812 28.1799 9.516V9.228H26.0999Z" fill="#252020"/>
<path d="M38.7213 5.9949L43.0679 10.3416C43.5813 10.8549 44.4212 10.8549 44.9346 10.3416L49.2813 5.9949" stroke="#292D32" stroke-miterlimit="10" stroke-linecap="round" stroke-linejoin="round"/>
</svg>
