<svg width="138" height="16" viewBox="0 0 138 16" fill="none" xmlns="http://www.w3.org/2000/svg">
<path d="M14.6667 7.26146V2.72812C14.6667 1.72812 14.24 1.32812 13.18 1.32812H10.4867C9.42667 1.32812 9 1.72812 9 2.72812V7.26146C9 8.26146 9.42667 8.66146 10.4867 8.66146H13.18C14.24 8.66146 14.6667 8.26146 14.6667 7.26146Z" stroke="#EB4C6B" stroke-linecap="round" stroke-linejoin="round"/>
<path d="M14.6667 13.2719V12.0719C14.6667 11.0719 14.24 10.6719 13.18 10.6719H10.4867C9.42667 10.6719 9 11.0719 9 12.0719V13.2719C9 14.2719 9.42667 14.6719 10.4867 14.6719H13.18C14.24 14.6719 14.6667 14.2719 14.6667 13.2719Z" stroke="#EB4C6B" stroke-linecap="round" stroke-linejoin="round"/>
<path d="M7.0026 8.72813V13.2615C7.0026 14.2615 6.57594 14.6615 5.51594 14.6615H2.8226C1.7626 14.6615 1.33594 14.2615 1.33594 13.2615V8.72813C1.33594 7.72813 1.7626 7.32812 2.8226 7.32812H5.51594C6.57594 7.32812 7.0026 7.72813 7.0026 8.72813Z" stroke="#EB4C6B" stroke-linecap="round" stroke-linejoin="round"/>
<path d="M7.0026 2.72812V3.92813C7.0026 4.92813 6.57594 5.32813 5.51594 5.32813H2.8226C1.7626 5.32813 1.33594 4.92813 1.33594 3.92813V2.72812C1.33594 1.72812 1.7626 1.32812 2.8226 1.32812H5.51594C6.57594 1.32812 7.0026 1.72812 7.0026 2.72812Z" stroke="#EB4C6B" stroke-linecap="round" stroke-linejoin="round"/>
<path d="M26.96 12V3.6H27.884V11.088H31.736V12H26.96ZM37.598 9.708V8.052C37.598 7.02 36.878 6.504 36.074 6.504C35.27 6.504 34.55 7.02 34.55 8.052V9.708C34.55 10.74 35.27 11.256 36.074 11.256C36.878 11.256 37.598 10.74 37.598 9.708ZM38.498 8.064V9.696C38.498 11.52 37.226 12.12 36.074 12.12C34.922 12.12 33.65 11.52 33.65 9.696V8.064C33.65 6.24 34.922 5.64 36.074 5.64C37.226 5.64 38.498 6.24 38.498 8.064ZM42.0344 5.808V6.456C42.3464 5.952 42.9944 5.7 43.5584 5.7H43.9544V6.564H43.5584C42.7544 6.564 42.0344 7.08 42.0344 8.112V12H41.1344V5.808H42.0344ZM48.2927 11.256C49.0007 11.256 49.6367 10.86 49.7807 10.056H50.7047C50.5487 11.604 49.3727 12.12 48.2927 12.12C47.1407 12.12 45.8687 11.52 45.8687 9.696V8.064C45.8687 6.24 47.1407 5.64 48.2927 5.64C49.4447 5.64 50.7167 6.24 50.7167 8.064V9.108H46.7687V9.708C46.7687 10.74 47.4887 11.256 48.2927 11.256ZM49.8167 8.28V8.052C49.8167 7.02 49.0967 6.504 48.2927 6.504C47.4887 6.504 46.7687 7.02 46.7687 8.052V8.28H49.8167ZM61.7305 12H60.8305V7.98C60.8305 7.056 60.1105 6.504 59.4025 6.504C58.6705 6.504 57.9625 7.056 57.9625 8.052V12H57.0625V7.98C57.0625 7.056 56.3425 6.504 55.6345 6.504C54.9025 6.504 54.1945 7.056 54.1945 8.052V12H53.2945V5.808H54.1945V6.396C54.4945 5.892 55.1785 5.64 55.6345 5.64C56.3305 5.64 57.0865 5.928 57.5065 6.612C57.9265 5.928 58.6945 5.64 59.3905 5.64C60.5065 5.64 61.7305 6.312 61.7305 8.064V12ZM69.0383 3.6V4.764H68.1383V3.6H69.0383ZM69.0383 5.808V12H68.1383V5.808H69.0383ZM74.2576 12.12C73.6936 12.12 73.0456 11.868 72.7336 11.364V14.208H71.8336V5.808H72.7336V6.396C73.0456 5.892 73.6936 5.64 74.2576 5.64C75.4096 5.64 76.6816 6.24 76.6816 8.064V9.696C76.6816 11.52 75.4096 12.12 74.2576 12.12ZM75.7816 9.708V8.052C75.7816 7.02 75.0616 6.504 74.2576 6.504C73.4536 6.504 72.7336 7.02 72.7336 8.052V9.708C72.7336 10.74 73.4536 11.256 74.2576 11.256C75.0616 11.256 75.7816 10.74 75.7816 9.708ZM83.3941 7.62H82.4701C82.3621 6.9 81.8821 6.504 81.1141 6.504C80.4421 6.504 79.9501 6.84 79.9501 7.404C79.9501 7.92 80.2981 8.148 80.8021 8.268L81.9661 8.556C82.9021 8.784 83.5501 9.252 83.5501 10.392C83.5501 11.616 82.6261 12.12 81.3661 12.12C80.0701 12.12 78.9781 11.52 78.8821 10.02H79.8061C79.8901 10.896 80.5381 11.256 81.3661 11.256C82.2301 11.256 82.6261 10.908 82.6381 10.368C82.6381 9.972 82.4581 9.624 81.7741 9.456L80.5621 9.156C79.8901 9 79.0381 8.544 79.0381 7.44C79.0381 6.3 79.9861 5.64 81.1261 5.64C82.3741 5.64 83.2981 6.24 83.3941 7.62ZM88.2665 12.12C87.2465 12.12 85.8785 11.568 85.8785 9.732V5.808H86.7785V9.672C86.7785 10.776 87.5345 11.256 88.2665 11.256C89.0225 11.256 89.7545 10.728 89.7545 9.708V5.808H90.6545V12H89.7545V11.364C89.4425 11.856 88.7945 12.12 88.2665 12.12ZM101.891 12H100.991V7.98C100.991 7.056 100.271 6.504 99.5627 6.504C98.8307 6.504 98.1227 7.056 98.1227 8.052V12H97.2227V7.98C97.2227 7.056 96.5027 6.504 95.7947 6.504C95.0627 6.504 94.3547 7.056 94.3547 8.052V12H93.4547V5.808H94.3547V6.396C94.6547 5.892 95.3387 5.64 95.7947 5.64C96.4907 5.64 97.2467 5.928 97.6667 6.612C98.0867 5.928 98.8547 5.64 99.5507 5.64C100.667 5.64 101.891 6.312 101.891 8.064V12ZM110.554 12.12C109.402 12.12 108.13 11.52 108.13 9.696V8.064C108.13 6.24 109.402 5.64 110.554 5.64C111.118 5.64 111.766 5.892 112.078 6.396V3.6H112.978V12H112.078V11.364C111.766 11.868 111.118 12.12 110.554 12.12ZM109.03 8.052V9.708C109.03 10.74 109.75 11.256 110.554 11.256C111.358 11.256 112.078 10.74 112.078 9.708V8.052C112.078 7.02 111.358 6.504 110.554 6.504C109.75 6.504 109.03 7.02 109.03 8.052ZM119.559 9.708V8.052C119.559 7.02 118.839 6.504 118.035 6.504C117.231 6.504 116.511 7.02 116.511 8.052V9.708C116.511 10.74 117.231 11.256 118.035 11.256C118.839 11.256 119.559 10.74 119.559 9.708ZM120.459 8.064V9.696C120.459 11.52 119.187 12.12 118.035 12.12C116.883 12.12 115.611 11.52 115.611 9.696V8.064C115.611 6.24 116.883 5.64 118.035 5.64C119.187 5.64 120.459 6.24 120.459 8.064ZM123.971 3.6V10.596C123.971 10.992 124.115 11.136 124.547 11.136H124.739V12H124.547C123.395 12 123.071 11.58 123.071 10.524V3.6H123.971ZM130.922 9.708V8.052C130.922 7.02 130.202 6.504 129.398 6.504C128.594 6.504 127.874 7.02 127.874 8.052V9.708C127.874 10.74 128.594 11.256 129.398 11.256C130.202 11.256 130.922 10.74 130.922 9.708ZM131.822 8.064V9.696C131.822 11.52 130.55 12.12 129.398 12.12C128.246 12.12 126.974 11.52 126.974 9.696V8.064C126.974 6.24 128.246 5.64 129.398 5.64C130.55 5.64 131.822 6.24 131.822 8.064ZM135.359 5.808V6.456C135.671 5.952 136.319 5.7 136.883 5.7H137.279V6.564H136.883C136.079 6.564 135.359 7.08 135.359 8.112V12H134.459V5.808H135.359Z" fill="#EB4C6B"/>
</svg>
